G04 Layer_Physical_Order=2*
G04 Layer_Color=16711680*
%FSLAX44Y44*%
%MOMM*%
G71*
G01*
G75*
%ADD10C,0.3500*%
%ADD36C,0.2540*%
%ADD37C,0.1000*%
G04:AMPARAMS|DCode=38|XSize=1.8mm|YSize=1.8mm|CornerRadius=0.225mm|HoleSize=0mm|Usage=FLASHONLY|Rotation=180.000|XOffset=0mm|YOffset=0mm|HoleType=Round|Shape=RoundedRectangle|*
%AMROUNDEDRECTD38*
21,1,1.8000,1.3500,0,0,180.0*
21,1,1.3500,1.8000,0,0,180.0*
1,1,0.4500,-0.6750,0.6750*
1,1,0.4500,0.6750,0.6750*
1,1,0.4500,0.6750,-0.6750*
1,1,0.4500,-0.6750,-0.6750*
%
%ADD38ROUNDEDRECTD38*%
%ADD39C,1.8000*%
%ADD40C,2.8000*%
%ADD41R,1.8000X1.8000*%
%ADD42C,3.3000*%
%ADD43C,2.0000*%
%ADD44C,2.5000*%
%ADD45C,4.0000*%
%ADD46C,2.2000*%
D10*
X584200Y861060D02*
Y908050D01*
X504190Y910590D02*
Y985520D01*
X518160Y937260D02*
Y1031240D01*
X582930Y810260D02*
X822960Y811530D01*
X659130Y868680D02*
Y990600D01*
X678180Y847090D02*
Y975360D01*
X556260Y1080770D02*
X586740D01*
X637540Y1057910D02*
X683260D01*
X1177290Y863600D02*
Y979170D01*
X785920Y948690D02*
X786130Y862330D01*
X659130Y1078230D02*
X701040D01*
X721360Y937260D02*
Y1103630D01*
D36*
X1512570Y1092200D02*
Y1143000D01*
Y863600D02*
Y1041400D01*
X1035050Y762000D02*
Y812800D01*
Y863600D02*
Y1041400D01*
Y1092200D02*
Y1143000D01*
X1013460Y1092200D02*
X1035050D01*
X1013460Y1041400D02*
Y1092200D01*
Y1041400D02*
X1035050D01*
X1013460Y812800D02*
X1035050D01*
X1013460D02*
Y863600D01*
X1035050D01*
X1512570Y1092200D02*
X1532890D01*
Y1041400D02*
Y1092200D01*
X1512570Y1041400D02*
X1532890D01*
X1512570Y812800D02*
X1532890D01*
Y863600D01*
X1512570D02*
X1532890D01*
X1035050Y1143000D02*
X1512570D01*
X1035050Y762000D02*
X1512570D01*
X450850D02*
Y1143000D01*
Y762000D02*
X928370D01*
Y1143000D01*
X450850D02*
X928370D01*
X1512570Y762000D02*
Y812800D01*
D37*
X1098580Y1054640D02*
Y1058640D01*
X1096580Y1056640D02*
X1100580D01*
X565740Y974760D02*
G03*
X565740Y974760I-5000J0D01*
G01*
X1114050Y947160D02*
G03*
X1114050Y947160I-5000J0D01*
G01*
X650590Y819910D02*
G03*
X650590Y819910I-5000J0D01*
G01*
X551740Y965760D02*
X621740D01*
X551740Y1035760D02*
X621740D01*
X551740Y965760D02*
Y1035760D01*
X621740Y965760D02*
Y1035760D01*
X777860Y797800D02*
Y827800D01*
X791860Y797800D02*
Y827800D01*
X777860D02*
X791860D01*
X777860Y797800D02*
X791860D01*
X1079050Y987160D02*
X1118050D01*
X1079050Y938160D02*
X1118050D01*
X1079050D02*
Y987160D01*
X1118050Y938160D02*
Y987160D01*
X1362360Y1045930D02*
Y1072430D01*
X1413860Y1045930D02*
Y1072430D01*
X1362360D02*
X1413860D01*
X1362360Y1045930D02*
X1413860D01*
X636590Y778910D02*
Y828910D01*
X676590Y778910D02*
Y828910D01*
X636590D02*
X676590D01*
X636590Y778910D02*
X676590D01*
X853070Y831050D02*
X883070D01*
X853070Y817050D02*
X883070D01*
Y831050D01*
X853070Y817050D02*
Y831050D01*
Y860230D02*
X883070D01*
X853070Y874230D02*
X883070D01*
X853070Y860230D02*
Y874230D01*
X883070Y860230D02*
Y874230D01*
D38*
X520270Y1104540D02*
D03*
D39*
X545670D02*
D03*
X571070D02*
D03*
X596470D02*
D03*
X621870D02*
D03*
X647270D02*
D03*
X672670D02*
D03*
X518160Y937260D02*
D03*
X582930Y810260D02*
D03*
X822960Y811530D02*
D03*
X787400Y855980D02*
D03*
X785920Y948690D02*
D03*
X678180Y975360D02*
D03*
X659130Y990600D02*
D03*
X1210310Y1029970D02*
D03*
Y1004570D02*
D03*
Y979170D02*
D03*
Y953770D02*
D03*
Y928370D02*
D03*
Y902970D02*
D03*
Y1055370D02*
D03*
Y1080770D02*
D03*
X753110D02*
D03*
Y1055370D02*
D03*
Y902970D02*
D03*
Y928370D02*
D03*
Y953770D02*
D03*
Y979170D02*
D03*
Y1004570D02*
D03*
Y1029970D02*
D03*
X478790Y970280D02*
D03*
Y995680D02*
D03*
Y1021080D02*
D03*
X1409700Y957380D02*
D03*
X1327150Y1064460D02*
D03*
X1282700Y993140D02*
D03*
X1257300D02*
D03*
X1308100D02*
D03*
X1333500D02*
D03*
X1358900D02*
D03*
X1384300D02*
D03*
X1409700D02*
D03*
X1435100D02*
D03*
Y871220D02*
D03*
X1409700D02*
D03*
X1384300D02*
D03*
X1358900D02*
D03*
X1333500D02*
D03*
X1308100D02*
D03*
X1257300D02*
D03*
X1282700D02*
D03*
X659130Y864870D02*
D03*
X678180Y847090D02*
D03*
X685800Y1057910D02*
D03*
X659130Y1078230D02*
D03*
X637540Y1057910D02*
D03*
X586740Y1080770D02*
D03*
X556260D02*
D03*
X721360Y937260D02*
D03*
X703580Y1078230D02*
D03*
X721360Y1103630D02*
D03*
X518160Y1031240D02*
D03*
X504190Y985520D02*
D03*
Y910590D02*
D03*
X1177290Y863600D02*
D03*
Y979170D02*
D03*
X584200Y908050D02*
D03*
Y861060D02*
D03*
D40*
X712470Y868680D02*
D03*
X480470D02*
D03*
D41*
X478790Y1046480D02*
D03*
X1409700Y932380D02*
D03*
X1327150Y1089460D02*
D03*
D42*
X904240Y1003300D02*
D03*
X793240D02*
D03*
D43*
X824240Y1073300D02*
D03*
X874240D02*
D03*
Y928300D02*
D03*
X824240D02*
D03*
X849240D02*
D03*
D44*
X1127760Y1112520D02*
D03*
X1165860D02*
D03*
X1402080Y831850D02*
D03*
X1363980D02*
D03*
X1287780D02*
D03*
X1325880D02*
D03*
D45*
X477520Y789940D02*
D03*
X1485900D02*
D03*
D46*
X1287780Y801370D02*
D03*
X1325880D02*
D03*
X1363980D02*
D03*
X1402080D02*
D03*
M02*
