G04 Layer_Physical_Order=1*
G04 Layer_Color=255*
%FSLAX44Y44*%
%MOMM*%
G71*
G01*
G75*
%ADD10C,0.3500*%
%ADD11C,1.2000*%
%ADD12C,0.7000*%
%ADD13C,0.5000*%
%ADD14C,1.0000*%
%ADD15R,0.8000X1.2000*%
%ADD16O,0.5500X1.6500*%
%ADD17O,1.6500X0.5500*%
%ADD18R,1.2000X0.8000*%
%ADD19R,1.6000X1.2000*%
%ADD20R,3.0000X2.0000*%
%ADD21R,0.8500X0.6000*%
%ADD22O,2.2000X0.6000*%
%ADD23R,1.2000X2.6000*%
%ADD24R,2.3000X2.3000*%
%ADD25R,3.0000X3.0000*%
%ADD26R,1.6000X2.2000*%
%ADD27R,1.2000X1.6000*%
%ADD28O,1.9000X0.6000*%
%ADD29R,1.4000X0.6000*%
%ADD30R,1.4000X1.6000*%
%ADD31R,0.6000X1.1500*%
%ADD32R,1.2000X2.4000*%
%ADD33R,1.2000X4.2000*%
%ADD34C,0.4000*%
%ADD35C,0.8000*%
%ADD36C,0.2540*%
%ADD37C,0.1000*%
G04:AMPARAMS|DCode=38|XSize=1.8mm|YSize=1.8mm|CornerRadius=0.225mm|HoleSize=0mm|Usage=FLASHONLY|Rotation=180.000|XOffset=0mm|YOffset=0mm|HoleType=Round|Shape=RoundedRectangle|*
%AMROUNDEDRECTD38*
21,1,1.8000,1.3500,0,0,180.0*
21,1,1.3500,1.8000,0,0,180.0*
1,1,0.4500,-0.6750,0.6750*
1,1,0.4500,0.6750,0.6750*
1,1,0.4500,0.6750,-0.6750*
1,1,0.4500,-0.6750,-0.6750*
%
%ADD38ROUNDEDRECTD38*%
%ADD39C,1.8000*%
%ADD40C,2.8000*%
%ADD41R,1.8000X1.8000*%
%ADD42C,3.3000*%
%ADD43C,2.0000*%
%ADD44C,2.5000*%
%ADD45C,4.0000*%
%ADD46C,2.2000*%
G36*
X4462780Y1139190D02*
X4417060Y1093470D01*
X4417060Y1031240D01*
X4417060Y862330D01*
X4451350Y828040D01*
X4488180Y828040D01*
X4523740Y863600D01*
X4523740Y876300D01*
X4531360Y883920D01*
X4645911Y883920D01*
X4646930Y883920D01*
X4653280Y877570D01*
X4653280Y876551D01*
X4653280Y865603D01*
X4660355Y858529D01*
X4670335Y858529D01*
X4677410Y865603D01*
X4677410Y878840D01*
X4639312Y916938D01*
X4551680Y916939D01*
X4545330Y916940D01*
X4521200Y941070D01*
X4500880D01*
Y916940D01*
X4500880Y886460D01*
X4500880Y863600D01*
X4493260Y855980D01*
X4479290D01*
X4472940Y862330D01*
X4472940Y935990D01*
X4450252Y958678D01*
X4450252Y1039032D01*
X4492625Y1081405D01*
X4647565Y1081405D01*
X4678680Y1112520D01*
X4733290Y1112520D01*
X4749800Y1096010D01*
X4762500D01*
X4772660Y1106170D01*
X4772660Y1139190D01*
X4654550Y1139190D01*
X4462780Y1139190D01*
D02*
G37*
G36*
X5038090Y1113790D02*
X5038090Y1054100D01*
X4998720Y1014730D01*
X4998720Y991870D01*
X5007610Y982980D01*
X5055870D01*
X5063490Y975360D01*
Y922020D01*
X5067300Y918210D01*
X5077460Y918210D01*
X5081270Y922020D01*
X5081270Y975360D01*
X5088890Y982980D01*
X5121910D01*
X5162550Y942340D01*
X5177790Y942340D01*
X5187950Y952500D01*
X5218430Y952500D01*
X5264150Y952500D01*
X5282748Y971098D01*
X5282417Y972760D01*
X5282825Y974808D01*
X5283985Y976545D01*
X5285721Y977705D01*
X5287770Y978113D01*
X5298770D01*
X5299841Y977900D01*
X5327650Y977900D01*
X5336540Y969010D01*
Y964676D01*
X5336623Y964260D01*
Y953260D01*
X5336540Y952844D01*
Y946150D01*
X5340350Y942340D01*
Y922020D01*
X5284470D01*
X5284470Y905510D01*
X5290820Y899160D01*
X5345430D01*
X5346700Y900430D01*
X5346700Y942340D01*
X5341620Y947420D01*
Y972820D01*
X5331461Y982980D01*
X5284470Y982980D01*
X5262880Y961390D01*
X5257800D01*
X5234940Y961390D01*
X5231130Y965200D01*
X5162550Y965200D01*
X5148580Y979170D01*
X5148580Y1012190D01*
X5137150Y1023620D01*
X5081270D01*
X5057140Y1047750D01*
X5057140Y1107440D01*
X5076190Y1126490D01*
X5218340D01*
X5218430Y1126508D01*
X5359880D01*
X5359970Y1126490D01*
X5386071D01*
X5391150Y1121410D01*
Y1097280D01*
X5394960Y1093470D01*
X5408930D01*
X5412740Y1097280D01*
X5412740Y1127760D01*
X5400040Y1140460D01*
X5064760Y1140460D01*
X5038090Y1113790D01*
D02*
G37*
G36*
X4817110Y975360D02*
X4814570Y972820D01*
X4790440Y972820D01*
X4781550Y963930D01*
X4776470D01*
Y951230D01*
X4771390Y946150D01*
X4743450D01*
X4726940Y962660D01*
X4706620Y962660D01*
X4701540Y957580D01*
X4701540Y948690D01*
X4706620Y943610D01*
X4720590Y943610D01*
X4729480Y934720D01*
Y927100D01*
X4756150D01*
X4763770Y934720D01*
X4785360D01*
X4791710Y928370D01*
Y897890D01*
X4809490D01*
Y928370D01*
X4829810Y948690D01*
Y962660D01*
X4833620Y966470D01*
X4852670D01*
X4853940Y967740D01*
Y985520D01*
X4836160D01*
X4832350Y989330D01*
Y1032510D01*
X4829810Y1035050D01*
X4817110D01*
Y975360D01*
D02*
G37*
D10*
X4688840Y1008380D02*
G03*
X4688836Y1008384I-9201J-9205D01*
G01*
X4688842Y1008378D02*
G03*
X4688840Y1008380I-9203J-9203D01*
G01*
X4641856Y1009656D02*
G03*
X4641850Y1009650I6126J-6138D01*
G01*
D02*
G03*
X4641844Y1009644I6132J-6132D01*
G01*
X4711700Y1055370D02*
G03*
X4694356Y1048186I0J-24528D01*
G01*
X4711700Y1080770D02*
G03*
X4694356Y1073586I0J-24528D01*
G01*
X4524018Y1033008D02*
G03*
X4530090Y1036320I-2595J11979D01*
G01*
D02*
G03*
X4534362Y1043352I-12264J12264D01*
G01*
X4613910Y960120D02*
G03*
X4619298Y947112I18396J0D01*
G01*
X4535351Y970099D02*
G03*
X4553311Y962660I17960J17960D01*
G01*
X5188071Y1036199D02*
G03*
X5206031Y1028760I17960J17960D01*
G01*
X4586331Y1031240D02*
G03*
X4568370Y1023801I0J-25400D01*
G01*
X4666889Y1031240D02*
G03*
X4684850Y1038680I0J25400D01*
G01*
X5205011Y1004760D02*
G03*
X5187051Y997320I0J-25400D01*
G01*
X4671241Y986609D02*
G03*
X4689201Y979170I17960J17960D01*
G01*
X5170671Y1028199D02*
G03*
X5188631Y1020760I17960J17960D01*
G01*
X4602841Y1022350D02*
G03*
X4584880Y1014911I0J-25400D01*
G01*
X4697294Y1029970D02*
G03*
X4685030Y1024890I0J-17344D01*
G01*
X4678898Y1022350D02*
G03*
X4685030Y1024890I0J8672D01*
G01*
X4688842Y1008378D02*
G03*
X4698038Y1004570I9196J9200D01*
G01*
X5187611Y1012760D02*
G03*
X5169650Y1005321I0J-25400D01*
G01*
X4641844Y1009644D02*
G03*
X4639310Y1003518I6138J-6126D01*
G01*
X4688836Y1008384D02*
G03*
X4679639Y1012190I-9198J-9209D01*
G01*
X4647982D02*
G03*
X4641856Y1009656I0J-8672D01*
G01*
X5270164Y995343D02*
G03*
X5262880Y990600I7588J-19615D01*
G01*
X5300920Y1040130D02*
G03*
X5307270Y1042760I0J8979D01*
G01*
X5273630Y1044620D02*
G03*
X5284470Y1040130I10840J10840D01*
G01*
X5241689Y1076561D02*
G03*
X5241691Y1076559I10168J10164D01*
G01*
X5237480Y1086725D02*
G03*
X5241689Y1076561I14377J0D01*
G01*
Y1096889D02*
G03*
X5237480Y1086725I10168J-10164D01*
G01*
X5241691Y1096891D02*
G03*
X5241689Y1096889I10166J-10166D01*
G01*
X5310059Y1055370D02*
G03*
X5310054Y1055376I-6132J-6132D01*
G01*
D02*
G03*
X5303928Y1057910I-6126J-6138D01*
G01*
X5184321Y1065350D02*
G03*
X5202281Y1057910I17960J17960D01*
G01*
X4545829Y1024480D02*
G03*
X4563789Y1031919I0J25400D01*
G01*
X4505722Y1024480D02*
G03*
X4492420Y1018970I0J-18812D01*
G01*
D02*
G03*
X4486910Y1005668I13302J-13302D01*
G01*
X4582521Y1040130D02*
G03*
X4564561Y1032691I0J-25400D01*
G01*
X4650379Y1040130D02*
G03*
X4668340Y1047570I0J25400D01*
G01*
X5331270Y1042760D02*
G03*
X5324015Y1060275I-24770J0D01*
G01*
X5274740Y1099616D02*
G03*
X5279390Y1088390I15876J0D01*
G01*
X5305880Y1078410D02*
G03*
X5287919Y1085850I-17960J-17960D01*
G01*
X5279390Y1088390D02*
G03*
X5285522Y1085850I6132J6132D01*
G01*
X5339270Y1044659D02*
G03*
X5331830Y1062619I-25400J0D01*
G01*
X5300140Y1104540D02*
G03*
X5307373Y1087077I24697J0D01*
G01*
X5191760Y1084580D02*
G03*
X5191769Y1084571I15330J15330D01*
G01*
X5303339Y1070790D02*
G03*
X5285379Y1078230I-17960J-17960D01*
G01*
X5191769Y1084571D02*
G03*
X5207090Y1078230I15321J15340D01*
G01*
X5084895Y1077145D02*
G03*
X5094178Y1073300I9283J9283D01*
G01*
X5081050Y1083709D02*
G03*
X5082972Y1079068I6564J0D01*
G01*
X5182689Y1093651D02*
G03*
X5164729Y1101090I-17960J-17960D01*
G01*
X5136081D02*
G03*
X5118120Y1093651I0J-25400D01*
G01*
X5122348Y924342D02*
G03*
X5122344Y924346I-11219J-11212D01*
G01*
X5174889Y902970D02*
G03*
X5192850Y910409I0J25400D01*
G01*
X5211171Y918210D02*
G03*
X5193210Y910770I0J-25400D01*
G01*
X4694356Y843280D02*
G03*
X4706620Y848360I0J17344D01*
G01*
D02*
G03*
X4711700Y860624I-12264J12264D01*
G01*
X4650920Y850720D02*
G03*
X4668881Y843280I17960J17960D01*
G01*
X4639310Y871220D02*
G03*
X4645596Y856044I21462J0D01*
G01*
X5130467Y796623D02*
G03*
X5130473Y796617I9839J9827D01*
G01*
X5126400Y806450D02*
G03*
X5130467Y796623I13906J0D01*
G01*
X5082719Y827860D02*
G03*
X5064759Y835300I-17960J-17960D01*
G01*
X5262726Y788516D02*
G03*
X5265420Y795020I-6504J6504D01*
G01*
X5277751Y996760D02*
G03*
X5270164Y995343I0J-21032D01*
G01*
X5255478Y784860D02*
G03*
X5261610Y787400I0J8672D01*
G01*
X5209501Y792299D02*
G03*
X5227461Y784860I17960J17960D01*
G01*
X5257165Y799465D02*
G03*
X5257166Y799466I-4599J4599D01*
G01*
X5257164Y799464D02*
G03*
X5257165Y799465I-4598J4600D01*
G01*
X5273040Y814596D02*
G03*
X5274310Y811530I4336J0D01*
G01*
X5295014Y863984D02*
G03*
X5287111Y858621I10057J-23324D01*
G01*
X5305071Y866060D02*
G03*
X5295014Y863984I0J-25400D01*
G01*
X5274310Y811530D02*
G03*
X5277376Y810260I3066J3066D01*
G01*
X5275116Y844086D02*
G03*
X5273040Y834029I23324J-10057D01*
G01*
X5280480Y851990D02*
G03*
X5275116Y844086I17960J-17960D01*
G01*
X5303600Y856060D02*
G03*
X5294928Y852468I0J-12264D01*
G01*
X5292090Y849630D02*
G03*
X5288920Y841977I7653J-7653D01*
G01*
X5204460Y770890D02*
G03*
X5210592Y768350I6132J6132D01*
G01*
X5275798D02*
G03*
X5281930Y770890I0J8672D01*
G01*
X5288062Y773430D02*
G03*
X5281930Y770890I0J-8672D01*
G01*
X5204460D02*
G03*
X5198328Y773430I-6132J-6132D01*
G01*
X5283835Y895985D02*
G03*
X5283843Y895977I10731J10731D01*
G01*
X5402219Y878840D02*
G03*
X5420179Y886280I0J25400D01*
G01*
X5276215Y882015D02*
G03*
X5283880Y878840I7665J7665D01*
G01*
X5276215Y882015D02*
G03*
X5268550Y885190I-7665J-7665D01*
G01*
X5174321Y838200D02*
G03*
X5156360Y830760I0J-25400D01*
G01*
X5262880Y885190D02*
G03*
X5256376Y882496I0J-9198D01*
G01*
X5201559Y838200D02*
G03*
X5219520Y845639I0J25400D01*
G01*
X5353050Y911116D02*
G03*
X5354320Y908050I4336J0D01*
G01*
X5378444Y908044D02*
G03*
X5378450Y908050I-6126J6138D01*
G01*
D02*
G03*
X5378456Y908056I-6132J6132D01*
G01*
X5283843Y895977D02*
G03*
X5294566Y891540I10723J10739D01*
G01*
X5365389D02*
G03*
X5383350Y898979I0J25400D01*
G01*
X5279390Y900430D02*
G03*
X5267126Y905510I-12264J-12264D01*
G01*
X5209901D02*
G03*
X5191940Y898071I0J-25400D01*
G01*
X5396411Y912040D02*
G03*
X5403850Y930001I-17960J17960D01*
G01*
X5130802Y888998D02*
G03*
X5139998Y885190I9196J9200D01*
G01*
X5169182D02*
G03*
X5186045Y892175I0J23848D01*
G01*
X5130800Y889000D02*
G03*
X5130802Y888998I9198J9198D01*
G01*
X5126990Y898198D02*
G03*
X5130798Y889002I13008J0D01*
G01*
X5126990Y913130D02*
G03*
X5122348Y924342I-15861J0D01*
G01*
X5117366Y928300D02*
G03*
X5118090Y928600I0J1024D01*
G01*
X5262880Y975360D02*
G03*
X5275888Y980748I0J18396D01*
G01*
X5257166Y799466D02*
G03*
X5259070Y804064I-4600J4598D01*
G01*
Y822960D02*
G03*
X5252784Y838136I-21462J0D01*
G01*
X5290997Y987760D02*
G03*
X5292074Y988760I-12877J14954D01*
G01*
X5252566Y797560D02*
G03*
X5257164Y799464I0J6504D01*
G01*
X5214620Y804960D02*
G03*
X5232485Y797560I17865J17865D01*
G01*
X5271624Y952353D02*
G03*
X5271629Y952359I-11918J11930D01*
G01*
X5247787Y942487D02*
G03*
X5247781Y942481I11918J-11930D01*
G01*
X5299761Y958760D02*
G03*
X5281801Y951320I0J-25400D01*
G01*
X5445386Y930014D02*
G03*
X5445760Y929860I374J377D01*
G01*
X5378456Y908056D02*
G03*
X5380990Y914182I-6138J6126D01*
G01*
X5445385Y930015D02*
G03*
X5445386Y930014I375J376D01*
G01*
X5424170Y951230D02*
G03*
X5411906Y956310I-12264J-12264D01*
G01*
X5386070Y946150D02*
G03*
X5380990Y933886I12264J-12264D01*
G01*
X5405207Y956310D02*
G03*
X5389882Y949962I0J-21673D01*
G01*
X5372318Y905510D02*
G03*
X5378444Y908044I0J8672D01*
G01*
X5354320Y908050D02*
G03*
X5360452Y905510I6132J6132D01*
G01*
X5353050Y939120D02*
G03*
X5349875Y946785I-10840J0D01*
G01*
X5347270Y953074D02*
G03*
X5349875Y946785I8894J0D01*
G01*
X5349110Y1067940D02*
G03*
X5350940Y1072365I-4435J4425D01*
G01*
X5349103Y1067934D02*
G03*
X5347270Y1063505I4431J-4429D01*
G01*
X5349105Y1067935D02*
G03*
X5349110Y1067940I-4430J4430D01*
G01*
X5359400Y1061720D02*
G03*
X5359393Y1061713I9971J-9971D01*
G01*
X5359400Y1061720D02*
G03*
X5359409Y1061729I-15330J15330D01*
G01*
D02*
G03*
X5365750Y1077050I-15340J15321D01*
G01*
X5359393Y1061713D02*
G03*
X5355270Y1051749I9977J-9964D01*
G01*
X5325540Y1101021D02*
G03*
X5332980Y1083061I25400J0D01*
G01*
X5457190Y1071880D02*
G03*
X5457184Y1071886I-6132J-6132D01*
G01*
X5457195Y1071874D02*
G03*
X5457190Y1071880I-6138J-6126D01*
G01*
X5406505Y1080685D02*
G03*
X5406514Y1080677I15125J15125D01*
G01*
X5412060Y1014730D02*
G03*
X5419725Y1017905I0J10840D01*
G01*
X5427390Y1021080D02*
G03*
X5419725Y1017905I0J-10840D01*
G01*
X5391945Y1017745D02*
G03*
X5399224Y1014730I7279J7279D01*
G01*
X5391945Y1017745D02*
G03*
X5384666Y1020760I-7279J-7279D01*
G01*
X5391785Y1009015D02*
G03*
X5391782Y1009018I-9041J-9041D01*
G01*
X5279392Y888998D02*
G03*
X5288588Y885190I9196J9200D01*
G01*
X5381899D02*
G03*
X5399860Y892629I0J25400D01*
G01*
X5279390Y889000D02*
G03*
X5279392Y888998I9198J9198D01*
G01*
X5275580Y892810D02*
G03*
X5275578Y892812I-9198J-9198D01*
G01*
D02*
G03*
X5266382Y896620I-9196J-9200D01*
G01*
X5391782Y1009018D02*
G03*
X5382744Y1012760I-9038J-9044D01*
G01*
X5172349Y877570D02*
G03*
X5190309Y885010I0J25400D01*
G01*
X5212441Y896620D02*
G03*
X5194481Y889181I0J-25400D01*
G01*
X5124142Y882958D02*
G03*
X5137150Y877570I13008J13008D01*
G01*
X5118100Y894388D02*
G03*
X5121908Y885192I13008J0D01*
G01*
X5053330Y913130D02*
G03*
X5062528Y909320I9198J9198D01*
G01*
X5047770Y926553D02*
G03*
X5053330Y913130I18983J0D01*
G01*
X5467006Y1074764D02*
G03*
X5463758Y1080552I-11920J-2884D01*
G01*
X5467350Y1071880D02*
G03*
X5467006Y1074764I-12264J0D01*
G01*
X5462270Y989330D02*
G03*
X5467350Y1001594I-12264J12264D01*
G01*
X5463540Y1080770D02*
G03*
X5458357Y1083413I-6663J-6663D01*
G01*
D02*
G03*
X5456877Y1083530I-1480J-9306D01*
G01*
X5408648Y970280D02*
G03*
X5391785Y963295I0J-23848D01*
G01*
X5380837Y958760D02*
G03*
X5391785Y963295I0J15483D01*
G01*
X5366230Y1115060D02*
G03*
X5366221Y1115069I-15330J-15330D01*
G01*
X5259705Y947420D02*
G03*
X5247787Y942487I0J-16863D01*
G01*
X5259705Y947420D02*
G03*
X5271624Y952353I0J16863D01*
G01*
X5238868Y937260D02*
G03*
X5245170Y939870I0J8913D01*
G01*
X5393959Y1060181D02*
G03*
X5402580Y1056610I8621J8621D01*
G01*
X5135880Y825841D02*
G03*
X5143320Y807880I25400J0D01*
G01*
X5196660Y1107620D02*
G03*
X5178699Y1115060I-17960J-17960D01*
G01*
X5131161D02*
G03*
X5113200Y1107620I0J-25400D01*
G01*
X4684850Y955220D02*
G03*
X4666889Y962660I-17960J-17960D01*
G01*
X4521423Y1032730D02*
G03*
X4524018Y1033008I0J12257D01*
G01*
X4534362Y1043352D02*
G03*
X4535170Y1048584I-16536J5232D01*
G01*
X4816475Y1128395D02*
G03*
X4816472Y1128398I-13797J-13797D01*
G01*
X5017770Y827131D02*
G03*
X5025209Y809171I25400J0D01*
G01*
X5053510Y780870D02*
G03*
X5071471Y773430I17960J17960D01*
G01*
X5406514Y1080677D02*
G03*
X5421630Y1074420I15117J15133D01*
G01*
X5457184Y1071886D02*
G03*
X5451058Y1074420I-6126J-6138D01*
G01*
X5459730Y1065748D02*
G03*
X5457195Y1071874I-8672J0D01*
G01*
X5452291Y1004751D02*
G03*
X5459730Y1022711I-17960J17960D01*
G01*
X5303738Y784860D02*
G03*
X5306334Y785258I0J8672D01*
G01*
X5309609Y787150D02*
G03*
X5306334Y785258I1897J-7064D01*
G01*
X5311506Y787400D02*
G03*
X5309609Y787150I0J-7315D01*
G01*
X5306334Y785258D02*
G03*
X5309609Y787150I-2596J8274D01*
G01*
X5201990Y782140D02*
G03*
X5219951Y774700I17960J17960D01*
G01*
X5259506D02*
G03*
X5271770Y779780I0J17344D01*
G01*
X5284034Y784860D02*
G03*
X5271770Y779780I0J-17344D01*
G01*
X5315270Y941420D02*
X5307330Y933480D01*
X5315270Y941420D02*
Y958760D01*
X5331270Y938340D02*
X5328920Y935990D01*
X5331270Y938340D02*
Y958760D01*
X5417820Y985520D02*
X5415280D01*
X5363270Y920810D02*
X5361940Y919480D01*
X5363270Y920810D02*
Y958760D01*
X5315270Y972440D02*
X5314950Y972760D01*
X5220970Y1078230D02*
X5218430D01*
X5238750Y1057910D02*
X5236210D01*
X5323270Y1042760D02*
Y1050860D01*
X5295810Y1028760D02*
X5293270D01*
X5295810Y996760D02*
X5293270D01*
X5295810Y1012760D02*
X5293270D01*
X5295810Y972760D02*
X5293270D01*
X5295810Y1004760D02*
X5293270D01*
X5332730Y917990D02*
X5328920D01*
X5266690Y918210D02*
X5262880D01*
X5293270Y972760D02*
X5292030D01*
X5295810Y1020760D02*
X5293270D01*
X5295810Y988760D02*
X5293270D01*
X4800930Y1056640D02*
X4794250Y1063320D01*
X4756150Y1112520D02*
Y1132840D01*
X4757420Y1134110D02*
X4756150Y1132840D01*
X5403850Y1031240D02*
X5403790Y1028760D01*
X5379810D01*
X5300140Y1104540D02*
Y1104950D01*
X5249340Y1104540D02*
Y1104950D01*
X5325540Y1104540D02*
Y1104950D01*
X5402580Y1084610D02*
X5401740Y1085450D01*
Y1104540D01*
X5334000Y816610D02*
X5316220D01*
X5337810Y812800D02*
X5334000Y816610D01*
X5132070Y773430D02*
X5114290D01*
X4745990Y913100D02*
X4744990Y912100D01*
X4847460Y943610D02*
X4846190Y942340D01*
X4777350Y909680D02*
X4773930Y913100D01*
X4847350Y855820D02*
X4846190Y856980D01*
X4781550Y956310D02*
X4779010Y958850D01*
X4800190Y918210D02*
X4799460Y918940D01*
X4761010Y958850D02*
Y961170D01*
X4779010Y979170D02*
X4761010Y961170D01*
X4781550Y981710D02*
X4779010Y979170D01*
X4799460Y981710D02*
X4781550D01*
X5350290Y773430D02*
X5336760D01*
X5214620Y822960D02*
X5214510D01*
X5099270Y929800D02*
X5097770Y928300D01*
X5290930Y917990D02*
X5290820Y918100D01*
X5047770Y1073300D02*
X5046980Y1074090D01*
X5081270Y951230D02*
X5072770D01*
X5064980D01*
X5072770Y928300D02*
Y951230D01*
X5099270Y929800D02*
Y951230D01*
X5046980Y929090D02*
Y951230D01*
X5047770Y928300D02*
X5046980Y929090D01*
X4744990Y887020D02*
X4744720Y886750D01*
X5136320Y928370D02*
X5136090Y928600D01*
X5136100Y911860D02*
X5136090Y911870D01*
Y948690D02*
Y952290D01*
X5150070Y773430D02*
Y777020D01*
X5044440Y835300D02*
Y855980D01*
X5088670D02*
X5064710D01*
X5373370Y816610D02*
X5372100Y817880D01*
X5118100Y909320D02*
X5117880D01*
X5081050Y1093470D02*
X5068570D01*
X4557140Y1060420D02*
X4555900Y1059180D01*
X4545530Y1089460D02*
X4535170Y1099820D01*
X4594860Y1089460D02*
X4545530D01*
X4512310Y993140D02*
Y1014730D01*
X4613910Y993140D02*
X4588510D01*
X4613910Y960120D02*
Y993140D01*
X4702810Y863600D02*
X4619298Y947112D01*
X4605020Y962660D02*
X4553311D01*
X4535351Y970099D02*
X4512310Y993140D01*
X4472305Y972125D02*
Y972185D01*
X4486880Y957550D02*
X4472305Y972125D01*
X4487110Y957380D02*
X4486910Y957580D01*
X4472305Y972185D02*
X4470219Y974270D01*
X4761230Y1083310D02*
X4757781D01*
X4636379Y1060420D02*
X4635500D01*
X4870450Y1017270D02*
Y1017860D01*
X4859610Y956310D02*
X4847460D01*
X4859610Y1028700D02*
X4851430D01*
X5293270Y1028760D02*
X5206031D01*
X5188071Y1036199D02*
X5168900Y1055370D01*
X4568370Y1023801D02*
X4537710Y993140D01*
X4694356Y1048186D02*
X4684850Y1038680D01*
X4666889Y1031240D02*
X4586331D01*
X5187051Y997320D02*
X5168900Y979170D01*
X5293270Y1004760D02*
X5205011D01*
X4711700Y979170D02*
X4689201D01*
X4671241Y986609D02*
X4664710Y993140D01*
X5293270Y1020760D02*
X5188631D01*
X5170671Y1028199D02*
X5168900Y1029970D01*
X4584880Y1014911D02*
X4563110Y993140D01*
X4711700Y1029970D02*
X4697294D01*
X4678898Y1022350D02*
X4602841D01*
X5169650Y1005321D02*
X5168900Y1004570D01*
X4711700D02*
X4698038D01*
X5293270Y1012760D02*
X5187611D01*
X4639310Y993140D02*
Y1003518D01*
X4679639Y1012190D02*
X4647982D01*
X5300920Y1040130D02*
X5284470D01*
X5273630Y1044620D02*
X5241691Y1076559D01*
X5241689Y1076561D01*
X5249340Y1104540D02*
X5241691Y1096891D01*
X5241689Y1096889D01*
X5315270Y1042760D02*
Y1050160D01*
X5310059Y1055370D01*
X5303928Y1057910D02*
X5284470D01*
X5236210D02*
X5202281D01*
X5184321Y1065350D02*
X5168900Y1080770D01*
X4545829Y1024480D02*
X4505722D01*
X4564561Y1032691D02*
X4563789Y1031919D01*
X4486910Y993140D02*
Y1005668D01*
X4650379Y1040130D02*
X4582521D01*
X4694356Y1073586D02*
X4668340Y1047570D01*
X5274740Y1099616D02*
Y1104540D01*
X5324015Y1060275D02*
X5305880Y1078410D01*
X5287919Y1085850D02*
X5285522D01*
X5339270Y1042760D02*
Y1044659D01*
X5331830Y1062619D02*
X5307373Y1087077D01*
X5325540Y1101021D02*
Y1104540D01*
X5081050Y1083709D02*
Y1093470D01*
X5323270Y1050860D02*
X5303339Y1070790D01*
X5285379Y1078230D02*
X5262880D01*
X5218430D02*
X5207090D01*
X5191760Y1084580D02*
X5182689Y1093651D01*
X5097770Y1073300D02*
X5094178D01*
X5118120Y1093651D02*
X5097770Y1073300D01*
X5084895Y1077145D02*
X5082972Y1079068D01*
X5164729Y1101090D02*
X5136081D01*
X5193210Y910770D02*
X5192850Y910409D01*
X5174889Y902970D02*
X5168900D01*
X5262880Y918210D02*
X5211171D01*
X4694356Y843280D02*
X4668881D01*
X4711700Y860624D02*
Y901700D01*
X4650920Y850720D02*
X4645596Y856044D01*
X5150070Y777020D02*
X5130473Y796617D01*
X5126400Y806450D02*
Y812800D01*
X5337810Y803910D02*
Y812800D01*
X5099050Y811530D02*
X5082719Y827860D01*
X5064759Y835300D02*
X5063440D01*
X5047770Y926553D02*
Y928300D01*
X5265420Y795020D02*
Y864870D01*
X5293270Y996760D02*
X5277751D01*
X5255478Y784860D02*
X5241920D01*
X5262726Y788516D02*
X5261610Y787400D01*
X5241920Y784860D02*
X5227461D01*
X5209501Y792299D02*
X5196840Y804960D01*
X5252784Y838136D02*
X5243830Y847090D01*
X5288920Y810260D02*
X5277376D01*
X5307100Y866060D02*
X5305071D01*
X5273040Y814596D02*
Y834029D01*
X5287111Y858621D02*
X5280480Y851990D01*
X5294928Y852468D02*
X5292090Y849630D01*
X5307100Y856060D02*
X5303600D01*
X5288920Y822960D02*
Y841977D01*
X5318760Y773430D02*
X5288062D01*
X5275798Y768350D02*
X5210592D01*
X5198328Y773430D02*
X5150070D01*
X5402219Y878840D02*
X5283880D01*
X5445760Y911860D02*
X5420179Y886280D01*
X5268550Y885190D02*
X5262880D01*
X5156360Y830760D02*
X5147900Y822300D01*
X5256376Y882496D02*
X5219520Y845639D01*
X5201559Y838200D02*
X5174321D01*
X5365389Y891540D02*
X5294566D01*
X5396411Y912040D02*
X5383350Y898979D01*
X5283835Y895985D02*
X5279390Y900430D01*
X5403850Y930001D02*
Y937260D01*
X5267126Y905510D02*
X5209901D01*
X5169182Y885190D02*
X5139998D01*
X5191940Y898071D02*
X5186045Y892175D01*
X5130800Y889000D02*
X5130798Y889002D01*
X5126990Y898198D02*
Y913130D01*
X5122344Y924346D02*
X5118090Y928600D01*
X5117366Y928300D02*
X5097770D01*
X5259070Y804064D02*
Y822960D01*
X5262880Y975360D02*
X5246370D01*
X5293270Y988760D02*
X5292074D01*
X5283900D01*
X5275888Y980748D01*
X5252566Y797560D02*
X5241920D01*
X5232485D01*
X5292030Y972760D02*
X5271629Y952359D01*
X5307270Y958760D02*
X5299761D01*
X5281801Y951320D02*
X5266690Y936210D01*
X5347270Y953074D02*
Y958760D01*
X5445386Y930014D02*
X5445385Y930015D01*
X5424170Y951230D01*
X5411906Y956310D02*
X5405207D01*
X5389882Y949962D02*
X5386070Y946150D01*
X5372318Y905510D02*
X5360452D01*
X5380990Y914182D02*
Y933886D01*
X5353050Y911116D02*
Y939120D01*
X5350940Y1072365D02*
Y1104540D01*
X5347270Y1042760D02*
Y1063505D01*
X5350940Y1104950D02*
X5349810Y1103820D01*
X5349105Y1067935D02*
X5349103Y1067934D01*
X5365750Y1077050D02*
Y1080770D01*
X5355270Y1042760D02*
Y1051749D01*
X5335270Y1080770D02*
X5332980Y1083061D01*
X5406505Y1080685D02*
X5402580Y1084610D01*
X5443220Y1021080D02*
X5427390D01*
X5412060Y1014730D02*
X5399224D01*
X5384666Y1020760D02*
X5377270D01*
X5415280Y985520D02*
X5391785Y1009015D01*
X5381899Y885190D02*
X5288588D01*
X5417820Y910590D02*
X5399860Y892629D01*
X5279392Y888998D02*
X5279390Y889000D01*
X5275580Y892810D01*
X5275578Y892812D01*
X5382744Y1012760D02*
X5377270D01*
X5194481Y889181D02*
X5190309Y885010D01*
X5266382Y896620D02*
X5212441D01*
X5172349Y877570D02*
X5137150D01*
X5124142Y882958D02*
X5121908Y885192D01*
X5118100Y894388D02*
Y909320D01*
X5117880D02*
X5062528D01*
X5467350Y1001594D02*
Y1071880D01*
X5462270Y989330D02*
X5443220Y970280D01*
X5463758Y1080552D02*
X5463540Y1080770D01*
X5456877Y1083530D02*
X5443220D01*
X5412740Y970280D02*
X5408648D01*
X5380837Y958760D02*
X5377180D01*
X5017770Y827131D02*
Y1003300D01*
X5307330Y936100D02*
X5289550D01*
X5238868Y937260D02*
X5237539D01*
X5247781Y942481D02*
X5245170Y939870D01*
X5405270Y1053920D02*
X5402580Y1056610D01*
X5377567Y1103313D02*
X5376340Y1104540D01*
X5147900Y803300D02*
X5143320Y807880D01*
X5135880Y825841D02*
Y862330D01*
X5200650Y1103630D02*
X5196660Y1107620D01*
X5178699Y1115060D02*
X5131161D01*
X4711700Y928370D02*
X4684850Y955220D01*
X4666889Y962660D02*
X4623020D01*
X5113200Y1107620D02*
X5099050Y1093470D01*
X4613910Y862691D02*
Y871220D01*
X4535170Y1048584D02*
Y1099820D01*
X4521423Y1032730D02*
X4512310D01*
X4823430Y1111250D02*
Y1111604D01*
X5053510Y780870D02*
X5025209Y809171D01*
X5096290Y773430D02*
X5071471D01*
X5451058Y1074420D02*
X5421630D01*
X5452291Y1004751D02*
X5443220Y995680D01*
X5459730Y1022711D02*
Y1065748D01*
X5201990Y782140D02*
X5179060Y805070D01*
X5259506Y774700D02*
X5219951D01*
X5288920Y784860D02*
X5284034D01*
X5303738D02*
X5288920D01*
X5368290Y787400D02*
X5311506D01*
X4596130Y831850D02*
X4595949Y832030D01*
D11*
X4502511Y1059180D02*
G03*
X4484550Y1051740I0J-25400D01*
G01*
X4462780Y992231D02*
G03*
X4470219Y974270I25400J0D01*
G01*
Y1037410D02*
G03*
X4462780Y1019449I17960J-17960D01*
G01*
X4739821Y1090750D02*
G03*
X4757781Y1083310I17960J17960D01*
G01*
X4735830Y1094740D02*
G03*
X4723566Y1099820I-12264J-12264D01*
G01*
X4636379Y1060420D02*
G03*
X4654340Y1067859I0J25400D01*
G01*
X4696460Y1099820D02*
G03*
X4679116Y1092636I0J-24528D01*
G01*
X4794250Y1083310D02*
Y1112520D01*
Y1063320D02*
Y1083310D01*
X4486880Y905510D02*
Y957550D01*
X4512310Y957380D02*
X4487110D01*
X4486910Y957580D02*
X4472305Y972185D01*
X4511900Y1059180D02*
X4502511D01*
X4484550Y1051740D02*
X4470219Y1037410D01*
X4462780Y992231D02*
Y1019449D01*
X4794250Y1083310D02*
X4761230D01*
X4739821Y1090750D02*
X4735830Y1094740D01*
X4635500Y1060420D02*
X4557140D01*
X4679116Y1092636D02*
X4654340Y1067859D01*
X4723566Y1099820D02*
X4696460D01*
D12*
X4867275Y959485D02*
G03*
X4870450Y967150I-7665J7665D01*
G01*
Y1017860D02*
G03*
X4867275Y1025525I-10840J0D01*
G01*
D02*
G03*
X4859610Y1028700I-7665J-7665D01*
G01*
Y956310D02*
G03*
X4867275Y959485I0J10840D01*
G01*
X5368290Y773430D02*
Y787400D01*
X4867910Y1003300D02*
X4851430D01*
X4870450Y967150D02*
Y1017270D01*
D13*
X5391158Y1062982D02*
G03*
X5391165Y1062975I15373J15360D01*
G01*
X5384800Y1078342D02*
G03*
X5391158Y1062982I21732J0D01*
G01*
X5405270Y1053920D02*
G03*
X5423231Y1046480I17960J17960D01*
G01*
X5384800Y1085850D02*
G03*
X5377567Y1103313I-24697J0D01*
G01*
X5366221Y1115069D02*
G03*
X5350900Y1121410I-15321J-15340D01*
G01*
X5228951D02*
G03*
X5210991Y1113970I0J-25400D01*
G01*
X5241920Y822960D02*
X5214620D01*
X5179060Y823070D02*
X5167670D01*
X5147900Y803300D01*
X5134610Y855980D02*
X5106670D01*
X5443220Y1046480D02*
Y1065530D01*
X5376340Y1104540D02*
Y1104950D01*
X5366230Y1115060D01*
X5214510Y823070D02*
X5179060D01*
X5443220Y1046480D02*
X5423231D01*
X5393959Y1060181D02*
X5391165Y1062975D01*
X5384800Y1078342D02*
Y1085850D01*
X5210991Y1113970D02*
X5200650Y1103630D01*
X5350900Y1121410D02*
X5228951D01*
D14*
X4530270Y842190D02*
G03*
X4537710Y860151I-17960J17960D01*
G01*
X4558030Y831850D02*
G03*
X4563110Y844114I-12264J12264D01*
G01*
X4816472Y1128398D02*
G03*
X4802678Y1134110I-13794J-13801D01*
G01*
X4823430Y1111604D02*
G03*
X4816475Y1128395I-23746J0D01*
G01*
X4588510Y849991D02*
G03*
X4595949Y832030I25400J0D01*
G01*
X4613910Y862691D02*
G03*
X4621349Y844731I25400J0D01*
G01*
X5372100Y817880D02*
X5368290Y814070D01*
Y787400D02*
Y814070D01*
X4823430Y1003300D02*
Y1028700D01*
X4851430D02*
Y1055370D01*
X5372100Y861060D02*
X5337810D01*
X5372100Y817880D02*
Y861060D01*
X5415410Y816610D02*
X5373370D01*
X4823430Y1028700D02*
Y1111250D01*
X4588510Y849991D02*
Y871220D01*
X4537710Y860151D02*
Y871220D01*
X4530270Y842190D02*
X4519930Y831850D01*
X4563110Y844114D02*
Y871220D01*
X4802678Y1134110D02*
X4757420D01*
X4634230Y831850D02*
X4621349Y844731D01*
D15*
X5343940Y919480D02*
D03*
X5361940D02*
D03*
X5150070Y773430D02*
D03*
X5132070D02*
D03*
X5318760D02*
D03*
X5336760D02*
D03*
X4720810Y863600D02*
D03*
X4702810D02*
D03*
X5099050Y1093470D02*
D03*
X5081050D02*
D03*
X5135880Y909320D02*
D03*
X5117880D02*
D03*
X5099270Y951230D02*
D03*
X5081270D02*
D03*
X5046980D02*
D03*
X5064980D02*
D03*
X5050570Y1093470D02*
D03*
X5068570D02*
D03*
X4779010Y979170D02*
D03*
X4761010D02*
D03*
X5096290Y773430D02*
D03*
X5114290D02*
D03*
X4779010Y958850D02*
D03*
X4761010D02*
D03*
X5368290Y773430D02*
D03*
X5350290D02*
D03*
X5088670Y855980D02*
D03*
X5106670D02*
D03*
X5136090Y928600D02*
D03*
X5118090D02*
D03*
X4605020Y962660D02*
D03*
X4623020D02*
D03*
D16*
X5363270Y958760D02*
D03*
X5355270D02*
D03*
X5347270D02*
D03*
X5339270D02*
D03*
X5331270D02*
D03*
X5323270D02*
D03*
X5315270D02*
D03*
X5307270D02*
D03*
Y1042760D02*
D03*
X5315270D02*
D03*
X5323270D02*
D03*
X5331270D02*
D03*
X5339270D02*
D03*
X5347270D02*
D03*
X5355270D02*
D03*
X5363270D02*
D03*
D17*
X5293270Y972760D02*
D03*
Y980760D02*
D03*
Y988760D02*
D03*
Y996760D02*
D03*
Y1004760D02*
D03*
Y1012760D02*
D03*
Y1020760D02*
D03*
Y1028760D02*
D03*
X5377270D02*
D03*
Y1020760D02*
D03*
Y1012760D02*
D03*
Y1004760D02*
D03*
Y996760D02*
D03*
Y988760D02*
D03*
Y980760D02*
D03*
Y972760D02*
D03*
D18*
X5285740Y936100D02*
D03*
Y918100D02*
D03*
X5443220Y1065530D02*
D03*
Y1083530D02*
D03*
X5328920Y917990D02*
D03*
Y935990D02*
D03*
X5262880Y918210D02*
D03*
Y936210D02*
D03*
X5445760Y929860D02*
D03*
Y911860D02*
D03*
X5179060Y823070D02*
D03*
Y805070D02*
D03*
X5196840Y804960D02*
D03*
Y822960D02*
D03*
X5214620Y804960D02*
D03*
Y822960D02*
D03*
X4512310Y1014730D02*
D03*
Y1032730D02*
D03*
D19*
X5402580Y1056610D02*
D03*
Y1084610D02*
D03*
X5307330Y933480D02*
D03*
Y905480D02*
D03*
X4773930Y913100D02*
D03*
Y941100D02*
D03*
X4635500Y1088420D02*
D03*
Y1060420D02*
D03*
D20*
X4744990Y937020D02*
D03*
Y887020D02*
D03*
D21*
X5147900Y822300D02*
D03*
Y803300D02*
D03*
X5126400Y812800D02*
D03*
D22*
X4847460Y981710D02*
D03*
Y969010D02*
D03*
Y956310D02*
D03*
Y943610D02*
D03*
X4799460Y981710D02*
D03*
Y969010D02*
D03*
Y956310D02*
D03*
Y943610D02*
D03*
D23*
X4555900Y1059180D02*
D03*
X4511900D02*
D03*
D24*
X4845930Y1056640D02*
D03*
X4800930D02*
D03*
D25*
X4847350Y846930D02*
D03*
X4777350D02*
D03*
D26*
X4800190Y908050D02*
D03*
X4846190D02*
D03*
D27*
X4851430Y1003300D02*
D03*
X4823430D02*
D03*
X4851430Y1028700D02*
D03*
X4823430D02*
D03*
X4514880Y905510D02*
D03*
X4486880D02*
D03*
D28*
X5288920Y822960D02*
D03*
Y810260D02*
D03*
Y797560D02*
D03*
Y784860D02*
D03*
X5241920Y822960D02*
D03*
Y810260D02*
D03*
Y797560D02*
D03*
Y784860D02*
D03*
D29*
X5307100Y866060D02*
D03*
Y856060D02*
D03*
D30*
X5372100Y861060D02*
D03*
D31*
X5044440Y835300D02*
D03*
X5063440D02*
D03*
X5053940Y812800D02*
D03*
X5063440Y855980D02*
D03*
X5044440D02*
D03*
X5053940Y878480D02*
D03*
D32*
X5415410Y816610D02*
D03*
D33*
X5312410D02*
D03*
D34*
X5314950Y972760D02*
X5295810D01*
X5320090D02*
X5314950D01*
X5315270Y958760D02*
Y972440D01*
X5323270Y958760D02*
Y969580D01*
X5320090Y972760D01*
X5443220Y1021080D02*
X5442900Y1020760D01*
X5313680Y801370D02*
X5309870Y797560D01*
X5288920D01*
X5289320Y823360D02*
X5288920Y822960D01*
X5377180Y958760D02*
X5365810D01*
X5443220Y970280D02*
X5412740D01*
D35*
X4846190Y856980D02*
Y908050D01*
X5200650Y937260D02*
X5199380D01*
X5190490Y928370D02*
X5168900D01*
X5199380Y937260D02*
X5190490Y928370D01*
X4773930Y913100D02*
X4745990D01*
X4744990Y887020D02*
Y912100D01*
X4846190Y908050D02*
Y942340D01*
X4777350Y855820D02*
Y909680D01*
X4745990Y913100D02*
X4728240D01*
X4714240Y927100D01*
X4744720Y863600D02*
X4720810D01*
X4744720D02*
Y886750D01*
X5168900Y928370D02*
X5136320D01*
X5136090Y911870D02*
Y928600D01*
Y948690D01*
X5237539Y937260D02*
X5200650D01*
D36*
X4876800Y807475D02*
Y792480D01*
X4869302D01*
X4866803Y794979D01*
Y804976D01*
X4869302Y807475D01*
X4876800D01*
X4861805D02*
Y792480D01*
X4854307D01*
X4851808Y794979D01*
Y804976D01*
X4854307Y807475D01*
X4861805D01*
X4839312D02*
X4844311D01*
X4846810Y804976D01*
Y794979D01*
X4844311Y792480D01*
X4839312D01*
X4836813Y794979D01*
Y804976D01*
X4839312Y807475D01*
X4831815D02*
X4821818D01*
Y804976D01*
X4831815Y794979D01*
Y792480D01*
X4821818D01*
X4806823Y807475D02*
X4816819D01*
Y792480D01*
X4806823D01*
X4816819Y799978D02*
X4811821D01*
X4801824Y792480D02*
Y807475D01*
X4794327D01*
X4791827Y804976D01*
Y799978D01*
X4794327Y797478D01*
X4801824D01*
X4796826D02*
X4791827Y792480D01*
X4786829Y799978D02*
X4776832D01*
X4771834Y792480D02*
X4766836D01*
X4769335D01*
Y807475D01*
X4771834Y804976D01*
X4749341Y792480D02*
X4759338D01*
X4749341Y802477D01*
Y804976D01*
X4751841Y807475D01*
X4756839D01*
X4759338Y804976D01*
X4744343Y807475D02*
Y797478D01*
X4739344Y792480D01*
X4734346Y797478D01*
Y807475D01*
X4729348Y799978D02*
X4719351D01*
X4714353Y807475D02*
Y797478D01*
X4709354Y792480D01*
X4704356Y797478D01*
Y807475D01*
X4689361Y792480D02*
X4699358D01*
X4689361Y802477D01*
Y804976D01*
X4691860Y807475D01*
X4696858D01*
X4699358Y804976D01*
X4876800Y770890D02*
X4871801D01*
X4874301D01*
Y785885D01*
X4876800Y783386D01*
X4856807Y770890D02*
Y785885D01*
X4864304Y778388D01*
X4854307D01*
X4849309Y770890D02*
Y773389D01*
X4846810D01*
Y770890D01*
X4849309D01*
X4836813Y783386D02*
X4834314Y785885D01*
X4829315D01*
X4826816Y783386D01*
Y773389D01*
X4829315Y770890D01*
X4834314D01*
X4836813Y773389D01*
Y783386D01*
X4821818D02*
X4819319Y785885D01*
X4814320D01*
X4811821Y783386D01*
Y780887D01*
X4814320Y778388D01*
X4816819D01*
X4814320D01*
X4811821Y775888D01*
Y773389D01*
X4814320Y770890D01*
X4819319D01*
X4821818Y773389D01*
X4806823Y770890D02*
Y773389D01*
X4804323D01*
Y770890D01*
X4806823D01*
X4784330D02*
X4794327D01*
X4784330Y780887D01*
Y783386D01*
X4786829Y785885D01*
X4791827D01*
X4794327Y783386D01*
X4779331D02*
X4776832Y785885D01*
X4771834D01*
X4769335Y783386D01*
Y773389D01*
X4771834Y770890D01*
X4776832D01*
X4779331Y773389D01*
Y783386D01*
X4754340Y770890D02*
X4764337D01*
X4754340Y780887D01*
Y783386D01*
X4756839Y785885D01*
X4761837D01*
X4764337Y783386D01*
X4749341Y770890D02*
X4744343D01*
X4746842D01*
Y785885D01*
X4749341Y783386D01*
X4409440Y1092200D02*
Y1143000D01*
Y863600D02*
Y1041400D01*
X4886960Y762000D02*
Y812800D01*
Y863600D02*
Y1041400D01*
Y1092200D02*
Y1143000D01*
X4908550Y1092200D02*
X4886960D01*
X4908550Y1041400D02*
Y1092200D01*
Y1041400D02*
X4886960D01*
X4908550Y812800D02*
X4886960D01*
X4908550D02*
Y863600D01*
X4886960D01*
X4409440Y1092200D02*
X4389120D01*
Y1041400D02*
Y1092200D01*
X4409440Y1041400D02*
X4389120D01*
X4409440Y812800D02*
X4389120D01*
Y863600D01*
X4409440D02*
X4389120D01*
X4886960Y1143000D02*
X4409440D01*
X4886960Y762000D02*
X4409440D01*
X5471160D02*
Y1143000D01*
Y762000D02*
X4993640D01*
Y1143000D01*
X5471160D02*
X4993640D01*
X4409440Y762000D02*
Y812800D01*
D37*
X4823430Y1054640D02*
Y1058640D01*
X4825430Y1056640D02*
X4821430D01*
X5356270Y974760D02*
G03*
X5356270Y974760I5000J0D01*
G01*
X4807960Y947160D02*
G03*
X4807960Y947160I5000J0D01*
G01*
X5271420Y819910D02*
G03*
X5271420Y819910I5000J0D01*
G01*
X5370270Y965760D02*
X5300270D01*
X5370270Y1035760D02*
X5300270D01*
X5370270Y965760D02*
Y1035760D01*
X5300270Y965760D02*
Y1035760D01*
X5144150Y797800D02*
Y827800D01*
X5130150Y797800D02*
Y827800D01*
X5144150D02*
X5130150D01*
X5144150Y797800D02*
X5130150D01*
X4842960Y987160D02*
X4803960D01*
X4842960Y938160D02*
X4803960D01*
X4842960D02*
Y987160D01*
X4803960Y938160D02*
Y987160D01*
X4559650Y1045930D02*
Y1072430D01*
X4508150Y1045930D02*
Y1072430D01*
X4559650D02*
X4508150D01*
X4559650Y1045930D02*
X4508150D01*
X5285420Y778910D02*
Y828910D01*
X5245420Y778910D02*
Y828910D01*
X5285420D02*
X5245420D01*
X5285420Y778910D02*
X5245420D01*
X5068940Y831050D02*
X5038940D01*
X5068940Y817050D02*
X5038940D01*
Y831050D01*
X5068940Y817050D02*
Y831050D01*
Y860230D02*
X5038940D01*
X5068940Y874230D02*
X5038940D01*
X5068940Y860230D02*
Y874230D01*
X5038940Y860230D02*
Y874230D01*
D38*
X5401740Y1104540D02*
D03*
D39*
X5376340D02*
D03*
X5350940D02*
D03*
X5325540D02*
D03*
X5300140D02*
D03*
X5274740D02*
D03*
X5249340D02*
D03*
X5403850Y937260D02*
D03*
X5339080Y810260D02*
D03*
X5099050Y811530D02*
D03*
X5134610Y855980D02*
D03*
X5136090Y948690D02*
D03*
X5243830Y975360D02*
D03*
X5262880Y990600D02*
D03*
X4711700Y1029970D02*
D03*
Y1004570D02*
D03*
Y979170D02*
D03*
Y953770D02*
D03*
Y928370D02*
D03*
Y902970D02*
D03*
Y1055370D02*
D03*
Y1080770D02*
D03*
X5168900D02*
D03*
Y1055370D02*
D03*
Y902970D02*
D03*
Y928370D02*
D03*
Y953770D02*
D03*
Y979170D02*
D03*
Y1004570D02*
D03*
Y1029970D02*
D03*
X5443220Y970280D02*
D03*
Y995680D02*
D03*
Y1021080D02*
D03*
X4512310Y957380D02*
D03*
X4594860Y1064460D02*
D03*
X4639310Y993140D02*
D03*
X4664710D02*
D03*
X4613910D02*
D03*
X4588510D02*
D03*
X4563110D02*
D03*
X4537710D02*
D03*
X4512310D02*
D03*
X4486910D02*
D03*
Y871220D02*
D03*
X4512310D02*
D03*
X4537710D02*
D03*
X4563110D02*
D03*
X4588510D02*
D03*
X4613910D02*
D03*
X4664710D02*
D03*
X4639310D02*
D03*
X5262880Y864870D02*
D03*
X5243830Y847090D02*
D03*
X5236210Y1057910D02*
D03*
X5262880Y1078230D02*
D03*
X5284470Y1057910D02*
D03*
X5335270Y1080770D02*
D03*
X5365750D02*
D03*
X5200650Y937260D02*
D03*
X5218430Y1078230D02*
D03*
X5200650Y1103630D02*
D03*
X5403850Y1031240D02*
D03*
X5417820Y985520D02*
D03*
Y910590D02*
D03*
X4744720Y863600D02*
D03*
Y979170D02*
D03*
X5337810Y908050D02*
D03*
Y861060D02*
D03*
D40*
X5209540Y868680D02*
D03*
X5441540D02*
D03*
D41*
X5443220Y1046480D02*
D03*
X4512310Y932380D02*
D03*
X4594860Y1089460D02*
D03*
D42*
X5017770Y1003300D02*
D03*
X5128770D02*
D03*
D43*
X5097770Y1073300D02*
D03*
X5047770D02*
D03*
Y928300D02*
D03*
X5097770D02*
D03*
X5072770D02*
D03*
D44*
X4794250Y1112520D02*
D03*
X4756150D02*
D03*
X4519930Y831850D02*
D03*
X4558030D02*
D03*
X4634230D02*
D03*
X4596130D02*
D03*
D45*
X5444490Y789940D02*
D03*
X4436110D02*
D03*
D46*
X4634230Y801370D02*
D03*
X4596130D02*
D03*
X4558030D02*
D03*
X4519930D02*
D03*
M02*
